# xmcd
#
# Track frame offsets: 
#        150
#        18867
#        43272
#        50922
#        56652
#        66497
#        78280
#        102646
#        112130
#        123442
#        145488
#        163003
#        184720
#        199585
#        232000
#        256185
#        274270
#
# Disc length: 3803 seconds
#
# Revision: 1
# Processed by: cddbd v1.5.1PL0 Copyright (c) Steve Scherf et al.
# Submitted via: ExactAudioCopy v0.95b2
#
DISCID=060ed911
DTITLE=Various Artist - And This Is Maxwell Street (Volume 1)
DYEAR=2001
DGENRE=Blues
TTITLE0=Johnny Young - The Sun Is Shining
TTITLE1=Big John Wrencher - Can't Hold Out Much Longer
TTITLE2=Carey Bell - Juke Medley
TTITLE3=Robert Night Hawk - That's All Right
TTITLE4=Little Arthur - Red Top-Ornithology
TTITLE5=Carey Bell - Maxwell Street Jam
TTITLE6=Big John Wrencher - Lucille
TTITLE7=Arvella Gray - Corinna, Corinna
TTITLE8=Carrie Robinson - Power to Live Right
TTITLE9=Robert Night Hawk - Cheating and Lying Blues
TTITLE10=Robert Night Hawk - Honky Tonk
TTITLE11=Robert Night Hawk - Dust My Broom
TTITLE12=Robert Night Hawk - Peter Gunn Jam
TTITLE13=Robert Night Hawk - I Need Love So Bad
TTITLE14=Johnny Young - All I Want for My Breakfast
TTITLE15=Robert Night Hawk - Take It Easy, Baby
TTITLE16=unknown - Long Gone John
EXTD=YEAR: 2001 ID3G:   0
EXTT0=
EXTT1=
EXTT2=
EXTT3=
EXTT4=
EXTT5=
EXTT6=
EXTT7=
EXTT8=
EXTT9=
EXTT10=
EXTT11=
EXTT12=
EXTT13=
EXTT14=
EXTT15=
EXTT16=
PLAYORDER=
